#!OML:ASF H:\BabyWalks\Project 1\Capture day 1\Session 1\baby.ASF
:FULLY-SPECIFIED
:DEGREES
504
root 18.9048 17.9091 0.465302 -173.261 74.6034 -178.333
lowerback 22.8222 -1.04855 -2.40322
upperback 6.3774 -1.35419 -0.137086
thorax -5.66912 -0.413963 1.56634
lowerneck -1.27895 -3.59334 2.28469
upperneck 1.25211 -4.8608 2.83649
head 0.606332 -2.38873 0.445129
rclavicle 1.74931e-014 -3.18055e-015
rhumerus -55.7517 6.70373 -85.7786
rradius 45.2867
rwrist -3.80046
rhand -8.68935 -16.5106
rfingers 7.12502
rthumb 17.2455 -45.7654
lclavicle 1.74931e-014 -3.18055e-015
lhumerus -37.7427 -12.062 74.5415
lradius 90.0179
lwrist 4.5
lhand -18.4654 -1.46205
lfingers 7.12502
lthumb 7.82117 28.3733
rfemur -26.4926 4.91967 13.3807
rtibia 15.5789
rfoot -15.1935 -17.6917
rtoes -4.19066
lfemur -10.2141 -3.22022 -13.4459
ltibia 32.0083
lfoot -19.1504 -13.7028
ltoes -10.7635
505
root 19.0703 17.8591 0.503781 -175.32 73.9736 -180.216
lowerback 22.7772 -1.05213 -2.55221
upperback 6.3867 -1.38551 -0.13393
thorax -5.62984 -0.426954 1.66198
lowerneck -1.19949 -3.85147 2.13732
upperneck 1.19728 -5.19968 2.86551
head 0.582447 -2.56083 0.476906
rclavicle -1.49089e-014 2.82274e-014
rhumerus -55.8043 6.55614 -85.5557
rradius 45.1261
rwrist -3.77878
rhand -8.53453 -16.6397
rfingers 7.12502
rthumb 17.3945 -45.8814
lclavicle -1.49089e-014 2.82274e-014
lhumerus -38.1647 -12.0814 74.7527
lradius 90.0425
lwrist 4.43717
lhand -17.943 -1.13363
lfingers 7.12502
lthumb 8.32535 28.6823
rfemur -26.2459 4.80076 12.8232
rtibia 15.7267
rfoot -14.3051 -17.9532
rtoes -3.33012
lfemur -9.61469 -3.29174 -13.6204
ltibia 32.1178
lfoot -19.4727 -14.4722
ltoes -10.5401
506
root 19.2359 17.806 0.542836 -177.376 73.3236 -182.081
lowerback 22.7445 -1.04748 -2.71615
upperback 6.40206 -1.40944 -0.144227
thorax -5.59025 -0.435914 1.7497
lowerneck -1.12323 -4.11524 1.9862
upperneck 1.14165 -5.54632 2.88418
head 0.559336 -2.73691 0.506241
rclavicle -4.6118e-014 1.55052e-014
rhumerus -55.8565 6.3652 -85.326
rradius 44.9685
rwrist -3.74874
rhand -8.40857 -16.792
rfingers 7.12502
rthumb 17.5157 -46.0229
lclavicle -4.6118e-014 1.55052e-014
lhumerus -38.6017 -12.0738 74.9526
lradius 89.9443
lwrist 4.31387
lhand -17.4184 -0.802957
lfingers 7.12502
lthumb 8.8316 28.9922
rfemur -26.0541 4.48145 12.3286
rtibia 16.1989
rfoot -12.7084 -17.9462
rtoes -2.1163
lfemur -9.01161 -3.37892 -13.816
ltibia 32.2472
lfoot -19.7746 -15.2803
ltoes -10.2692
507
root 19.4013 17.7508 0.58254 -179.396 72.6566 -183.896
lowerback 22.7256 -1.03408 -2.88851
upperback 6.42117 -1.42394 -0.164407
thorax -5.5539 -0.439908 1.82919
lowerneck -1.0289 -4.38289 1.83391
upperneck 1.0687 -5.89721 2.88524
head 0.528052 -2.91572 0.531265
rclavicle -3.29983e-014 1.33186e-014
rhumerus -55.9167 6.14984 -85.0994
rradius 44.8212
rwrist -3.71055
rhand -8.34116 -16.9562
rfingers 7.12502
rthumb 17.5806 -46.1814
lclavicle -3.29983e-014 1.33186e-014
lhumerus -39.0576 -12.037 75.1413
lradius 89.7266
lwrist 4.14313
lhand -16.9089 -0.491708
lfingers 7.12502
lthumb 9.32323 29.2821
rfemur -25.9693 3.95515 11.9059
rtibia 17.0238
rfoot -10.5912 -17.644
rtoes -0.988003
lfemur -8.3976 -3.4864 -14.0267
ltibia 32.3713
lfoot -20.0421 -16.1047
ltoes -9.99376
508
root 19.5649 17.6974 0.622919 -181.322 71.9763 -185.609
lowerback 22.7249 -1.01296 -3.04542
upperback 6.44194 -1.42527 -0.192225
thorax -5.52627 -0.437149 1.88841
lowerneck -0.910091 -4.65312 1.68808
upperneck 0.969791 -6.25035 2.86135
head 0.484328 -3.09644 0.548977
rclavicle 2.50469e-014 -9.44227e-015
rhumerus -55.977 5.90337 -84.8756
rradius 44.6833
rwrist -3.65304
rhand -8.34251 -17.116
rfingers 7.12502
rthumb 17.5792 -46.3413
lclavicle 2.50469e-014 -9.44227e-015
lhumerus -39.5083 -11.9663 75.3219
lradius 89.3704
lwrist 3.91974
lhand -16.4141 -0.197027
lfingers 7.12502
lthumb 9.80069 29.5549
rfemur -26.0067 3.22451 11.5674
rtibia 18.2062
rfoot -8.19264 -17.1089
rtoes 0.465844
lfemur -7.78561 -3.63678 -14.2406
ltibia 32.486
lfoot -20.2613 -16.917
ltoes -9.70862
